<svg id="Button_Karriereportal" data-name="Button Karriereportal" xmlns="http://www.w3.org/2000/svg" width="30.5" height="30.273" viewBox="0 0 30.5 30.273">
  <path id="Pfad_139" data-name="Pfad 139" d="M270.382,228.135c-.132-.13-.113-.272-.158-.4s-.071-.265-.116-.393a5.037,5.037,0,0,0-.323-.745,5.658,5.658,0,0,0-.948-1.287,7.433,7.433,0,0,0-2.633-1.693,6.962,6.962,0,0,0-5.665.01,3.805,3.805,0,0,0-1.011.79c-.071.076-.209.218-.256.281s-.131.162-.2.251a3.965,3.965,0,0,0-.338.548,3.508,3.508,0,0,0-.314,2.442,7.249,7.249,0,0,0,1.151,2.621,13.291,13.291,0,0,0,2.014,2.34,26.171,26.171,0,0,0,11.584,5.451c2.154.495,4.356.827,6.57,1.107,1.107.143,2.219.268,3.332.386l1.671.173.837.085.418.043c.139.025.282-.024.409.2l0,.053c-.153.2-.289.137-.43.144l-.42-.009-.841-.017-1.683-.038c-1.122-.028-2.246-.064-3.37-.117a63.015,63.015,0,0,1-6.749-.676,35.313,35.313,0,0,1-6.668-1.672,23.71,23.71,0,0,1-3.2-1.452c-.262-.143-.488-.285-.734-.427s-.519-.318-.767-.488a16,16,0,0,1-1.427-1.1,15.544,15.544,0,0,1-2.455-2.66,9.54,9.54,0,0,1-1.617-3.455,5.936,5.936,0,0,1,.561-4.078,6.293,6.293,0,0,1,.577-.859c.107-.131.213-.258.34-.393s.2-.2.322-.329a5.98,5.98,0,0,1,1.7-1.166,6.936,6.936,0,0,1,3.85-.5,9.161,9.161,0,0,1,3.445,1.273,8.611,8.611,0,0,1,2.583,2.468,6.233,6.233,0,0,1,.777,1.584,5.314,5.314,0,0,1,.2.85c.023.143.036.286.046.431S270.492,227.986,270.382,228.135Z" transform="translate(-255.908 -219.489)" fill="#fff"/>
  <g id="Gruppe_80" data-name="Gruppe 80" transform="translate(0.088)">
    <path id="Pfad_140" data-name="Pfad 140" d="M267.962,251.585q-1.087,1.02-2.194,2.019c-1.568,1.415-3.172,2.79-4.792,4.149q-1.213,1.021-2.453,2.01l-1.253.97-.636.47-.322.229a.57.57,0,0,0-.258.335l.027.045a.547.547,0,0,0,.418-.082l.347-.2.685-.413,1.349-.857q1.338-.872,2.649-1.784c1.746-1.218,3.452-2.492,5.141-3.79q1.659-1.286,3.294-2.611Q268.955,251.858,267.962,251.585Z" transform="translate(-256.053 -231.553)" fill="#fff"/>
    <path id="Pfad_141" data-name="Pfad 141" d="M280.852,222.673a12.536,12.536,0,0,1,5.109-2.425,4.685,4.685,0,0,1,2.641.22,2.361,2.361,0,0,1,1.4,1.652,3.352,3.352,0,0,1,.1.587c.01.1.014.205.016.311v.1c0-.014,0,.047,0-.029v.013l0,.05a.792.792,0,0,1-.011.135,4.163,4.163,0,0,1-.339,1.155,14.879,14.879,0,0,1-1.453,2.5,43.584,43.584,0,0,1-3.915,4.778q-1.942,2.057-3.976,4.062,1.1.357,2.225.635c1.148-1.016,2.269-2.065,3.35-3.163a43.236,43.236,0,0,0,4.294-4.921,14.06,14.06,0,0,0,1.691-3.007,6.223,6.223,0,0,0,.429-1.916c0-.11,0-.209,0-.261l-.006-.147-.01-.119c-.014-.16-.033-.32-.061-.481a5.533,5.533,0,0,0-.247-.962,4.441,4.441,0,0,0-1.111-1.727,4.372,4.372,0,0,0-1.752-1.018,6.023,6.023,0,0,0-3.626.174,10.466,10.466,0,0,0-4.843,3.712C280.789,222.612,280.822,222.641,280.852,222.673Z" transform="translate(-265.673 -218.492)" fill="#fff"/>
  </g>
</svg>
