<svg id="Gruppe_78" data-name="Gruppe 78" xmlns="http://www.w3.org/2000/svg" xmlns:xlink="http://www.w3.org/1999/xlink" width="22.462" height="32.59" viewBox="0 0 22.462 32.59">
  <defs>
    <clipPath id="clip-path">
      <rect id="Rechteck_13" data-name="Rechteck 13" width="22.462" height="32.59" fill="#a2427d"/>
    </clipPath>
  </defs>
  <path id="Pfad_123" data-name="Pfad 123" d="M10.08,1.293,12.533.14A3.329,3.329,0,0,0,10.08,1.293Zm0,0" transform="translate(-5.868 -0.082)" fill="#a2427d"/>
  <path id="Pfad_124" data-name="Pfad 124" d="M16.254,1.14,13.58,2.4l3.242-.857a3.171,3.171,0,0,0-.568-.4Zm0,0" transform="translate(-7.906 -0.664)" fill="#a2427d"/>
  <path id="Pfad_125" data-name="Pfad 125" d="M10.1,74.311a1.529,1.529,0,0,0,1.525-1.529v-.5l-3.05.526a1.521,1.521,0,0,0,1.525,1.5Zm0,0" transform="translate(-4.989 -42.08)" fill="#a2427d"/>
  <path id="Pfad_126" data-name="Pfad 126" d="M11.614,61.3,8.56,62.583v.376l3.054-.43Zm0,0" transform="translate(-4.983 -35.688)" fill="#a2427d"/>
  <path id="Pfad_127" data-name="Pfad 127" d="M8.56,70.285l3.054-.526V69.37L8.56,68.99Zm0,0" transform="translate(-4.983 -40.165)" fill="#a2427d"/>
  <path id="Pfad_128" data-name="Pfad 128" d="M8.56,66.126v.343l3.054.38V65.7Zm0,0" transform="translate(-4.983 -38.249)" fill="#a2427d"/>
  <path id="Pfad_129" data-name="Pfad 129" d="M35.272,3.309A3.311,3.311,0,1,1,31.959,0a3.312,3.312,0,0,1,3.313,3.309Zm0,0" transform="translate(-16.68)" fill="#a2427d"/>
  <g id="Gruppe_74" data-name="Gruppe 74">
    <g id="Gruppe_72" data-name="Gruppe 72" clip-path="url(#clip-path)">
      <path id="Pfad_130" data-name="Pfad 130" d="M30.082,36.03a2.334,2.334,0,0,1-1.153,0,2.163,2.163,0,0,1-.276-.058,12.22,12.22,0,0,1-2.5-1.061c-.284,1.22-1.216,5.3-1.65,7.617V44.47a4.525,4.525,0,0,0,1.968.785v5.712a1.519,1.519,0,0,0,3.038,0V45.56h.217v5.407a1.519,1.519,0,0,0,3.038,0v-5.8a2.708,2.708,0,0,0,1.847-1.324A50.1,50.1,0,0,0,33.358,36.6s-2.7-.422-3.276-.572Zm0,0" transform="translate(-14.263 -20.324)" fill="#a2427d"/>
    </g>
    <g id="Gruppe_73" data-name="Gruppe 73" clip-path="url(#clip-path)">
      <path id="Pfad_131" data-name="Pfad 131" d="M31.664,16.29h-.008l-.8.84L30.03,16.3a8.224,8.224,0,0,0-3.28,2.214c.063.084.13.167.192.251a6.859,6.859,0,0,0,3.539,2.753l.355.15a1.944,1.944,0,0,1,1.057-.322,1.888,1.888,0,0,1,.506.067c.23.058,1.412.305,1.847.393v-.522A6.968,6.968,0,0,1,35.2,22.62l-2.971-.564a1.187,1.187,0,0,0-.589-.017,1.745,1.745,0,0,1,.552.819l.013.046.054.255a1.8,1.8,0,0,1-.058.777,1.824,1.824,0,0,1-.38.673,17.853,17.853,0,0,0,2.812.476h0a.071.071,0,0,1,.029,0v0h.058c1.124,0,2.5-.267,2.954-1.567.915-2.565-3.505-6.426-6.008-7.228Zm0,0" transform="translate(-15.573 -9.484)" fill="#a2427d"/>
    </g>
  </g>
  <path id="Pfad_132" data-name="Pfad 132" d="M4.593,5.267c-.033.067-.063.138-.088.2-.138.33-.184.439-.639.526l.175.969a1.594,1.594,0,0,0,1.375-1.12.071.071,0,0,0,.008-.021,3.326,3.326,0,0,0,6.635-.338,3.272,3.272,0,0,0-.4-1.571L5.813,5.455l-.067-.719,1.93-.907-1.968.522-.117.029s0,.008,0,.008a.909.909,0,0,1-.439.046A1.461,1.461,0,0,1,4.38,3.6l-.94.292A2.531,2.531,0,0,0,4.593,5.267Zm0,0" transform="translate(-2.003 -2.096)" fill="#a2427d"/>
  <g id="Gruppe_77" data-name="Gruppe 77">
    <g id="Gruppe_75" data-name="Gruppe 75" clip-path="url(#clip-path)">
      <path id="Pfad_133" data-name="Pfad 133" d="M13.8,16.518l-.831.836-.8-.844h-.008a8.466,8.466,0,0,0-1.416.627l-.021.013,1.755,4.492,1.738-4.989a3.994,3.994,0,0,0-.414-.134Zm0,0" transform="translate(-6.241 -9.612)" fill="#a2427d"/>
    </g>
    <g id="Gruppe_76" data-name="Gruppe 76" clip-path="url(#clip-path)">
      <path id="Pfad_134" data-name="Pfad 134" d="M7.195,24.814a1.176,1.176,0,0,0-.978-1.157h0L4.195,18.48a.832.832,0,0,1-.079.05l-.8,5.114c-.234,0-.292,0-.292,0l.727-4.855a9.1,9.1,0,0,0-1.237,1.045A9.99,9.99,0,0,0,.1,23.845a1.7,1.7,0,0,0,.134,1.462c.313.393.61.589,2.933.7,0-.008,2.854-.017,2.854-.017a1.176,1.176,0,0,0,1.174-1.178Zm0,0" transform="translate(0 -10.759)" fill="#a2427d"/>
    </g>
  </g>
  <path id="Pfad_135" data-name="Pfad 135" d="M20.43,22.927l-.986-.418a7.378,7.378,0,0,1-3.76-2.916,7.477,7.477,0,0,0-2.749-2.4l-.961,6.1a2.188,2.188,0,0,1,.159.769,1.5,1.5,0,0,1-1.483,1.483H7.95v1.613A2.482,2.482,0,0,0,8.2,28.417V36.3l3.054-1.283v-4.93c.063,0,.121.008.18.008h.038V40.713a1.529,1.529,0,0,0,3.058,0v-12.3a3.51,3.51,0,0,0,.234-1.249V22.526a9.841,9.841,0,0,0,4.483,2.645,1.213,1.213,0,0,0,1.182-.23,1.322,1.322,0,0,0,.435-.627,1.12,1.12,0,0,0-.439-1.387Zm0,0" transform="translate(-4.628 -10.008)" fill="#a2427d"/>
  <path id="Pfad_136" data-name="Pfad 136" d="M16.6,21.13,15.28,24.924a1.49,1.49,0,0,1,.669.372Zm0,0" transform="translate(-8.896 -12.301)" fill="#a2427d"/>
</svg>
