<svg id="Gruppe_43" data-name="Gruppe 43" xmlns="http://www.w3.org/2000/svg" width="42.941" height="42.941" viewBox="0 0 42.941 42.941">
  <path id="Pfad_57" data-name="Pfad 57" d="M0,0H42.941V42.941H0Z" fill="none"/>
  <path id="Pfad_58" data-name="Pfad 58" d="M22.314,11.578a3.578,3.578,0,1,1-3.578,3.578,3.589,3.589,0,0,1,3.578-3.578m0,17.892c4.831,0,10.378,2.308,10.735,3.578H11.578c.412-1.288,5.922-3.578,10.735-3.578M22.314,8a7.157,7.157,0,1,0,7.157,7.157A7.155,7.155,0,0,0,22.314,8Zm0,17.892C17.537,25.892,8,28.29,8,33.049v3.578H36.628V33.049C36.628,28.29,27.091,25.892,22.314,25.892Z" transform="translate(-0.843 -0.843)" fill="#a2427d"/>
</svg>
