<svg id="Gruppe_79" data-name="Gruppe 79" xmlns="http://www.w3.org/2000/svg" width="15.233" height="32.092" viewBox="0 0 15.233 32.092">
  <path id="Pfad_137" data-name="Pfad 137" d="M12.4,3.015A3.019,3.019,0,1,1,9.383,0,3.018,3.018,0,0,1,12.4,3.015Zm0,0" transform="translate(-1.636)" fill="#a2427d"/>
  <path id="Pfad_138" data-name="Pfad 138" d="M14.334,8.91H.891A.894.894,0,0,0,0,9.8v9.373a.894.894,0,0,0,.891.891h3.29l.007,2.443V32.736a1.6,1.6,0,0,0,1.433,1.649,1.518,1.518,0,0,0,1.337-1.649V23.7H8.623v9.039a1.513,1.513,0,0,0,1.329,1.649,1.534,1.534,0,0,0,1.359-1.649L11.326,22.4V20.073h3.015a.894.894,0,0,0,.891-.891V9.8a.905.905,0,0,0-.9-.891ZM7.969,11.955h2.755a.313.313,0,0,1,.23.1.285.285,0,0,1,.067.245l-.059.505-2.644.26c-.1.015-.215.015-.342.022V11.955Zm0,2.889a3.173,3.173,0,0,0,.4-.022l2.384-.245-.1.869L8.333,15.7c-.1.015-.23.015-.364.022Zm.364-.468c-.1.007-.23.015-.364.022V13.53a3.01,3.01,0,0,0,.386-.022l2.555-.253-.1.862Zm-.81,3.765H5.563a.468.468,0,0,1-.446-.394l-.067-.557,2.228.253c.074.007.156.015.238.015v.683Zm0-1.121a1.568,1.568,0,0,1-.193-.015l-2.339-.267L4.9,15.891l2.25.238a2.852,2.852,0,0,0,.371.022Zm0-1.307L7.2,15.691l-2.354-.253-.1-.862,2.406.253.379.022Zm0-1.315c-.119-.007-.238-.007-.334-.022l-2.51-.26-.1-.862,2.555.253c.111.015.253.015.386.022V14.4Zm0-1.315c-.126,0-.245-.007-.342-.015L4.53,12.8,4.471,12.3a.311.311,0,0,1,.067-.245.3.3,0,0,1,.23-.1H7.523Zm0-1.575H4.776a.752.752,0,0,0-.564.245.744.744,0,0,0-.178.594L4.686,17.8a.911.911,0,0,0,.891.787H7.538v.891H2.8a.36.36,0,0,1-.163-.3V11.309a.377.377,0,0,1,.371-.371H7.523Zm0-1.017H3.008a.819.819,0,0,0-.817.817v7.873a.815.815,0,0,0,.059.3H.891a.3.3,0,0,1-.3-.3V9.8a.3.3,0,0,1,.3-.3H7.523Zm.446,5.667h0a3.385,3.385,0,0,0,.408-.022L10.6,15.9l-.1.876-2.028.23c-.134.015-.312.022-.49.03v-.876Zm0,1.315h0a3.9,3.9,0,0,0,.542-.03l1.924-.223-.067.52a.468.468,0,0,1-.446.394H7.962l.007-.661Zm4.709,2.005H7.969v-.891H9.937a.9.9,0,0,0,.884-.78l.646-5.451a.744.744,0,0,0-.178-.594.752.752,0,0,0-.564-.245H7.969v-.572h4.493a.372.372,0,0,1,.371.371v7.873a.332.332,0,0,1-.156.29Zm1.953-.3h0a.3.3,0,0,1-.3.3H13.227a.815.815,0,0,0,.059-.3V11.309a.815.815,0,0,0-.817-.817H7.977V9.5h6.365a.3.3,0,0,1,.3.3v9.38Zm0,0" transform="translate(0 -2.293)" fill="#a2427d"/>
</svg>
