<svg id="Gruppe_58" data-name="Gruppe 58" xmlns="http://www.w3.org/2000/svg" width="13.173" height="32.432" viewBox="0 0 13.173 32.432">
  <path id="Pfad_109" data-name="Pfad 109" d="M11.035,7.543A3.455,3.455,0,0,0,13.748,1.97H12.635V1.447h.61a3.325,3.325,0,0,0-.7-.464,1.652,1.652,0,0,0-3.018,0,3.493,3.493,0,0,0-.7.464h.7V1.97h-1.2a3.455,3.455,0,0,0,2.709,5.573Zm0-6.813a.941.941,0,1,1-.936.941A.941.941,0,0,1,11.035.73Zm0,0" transform="translate(-4.448)" fill="#a2427d"/>
  <path id="Pfad_110" data-name="Pfad 110" d="M12.476,18.65h-.008a3.981,3.981,0,0,0-1.008.406c.191,1.451,1.028,2.77,1.854,2.77s1.667-1.319,1.854-2.774a4.224,4.224,0,0,0-.991-.394l-.863.867Zm0,0" transform="translate(-6.727 -10.941)" fill="#a2427d"/>
  <path id="Pfad_111" data-name="Pfad 111" d="M12.408,31.869v-.913a1.221,1.221,0,0,0,.761-1.132c0-6.6-3.4-9-4.23-9.454-.248,1.454-1.071,2.817-2.133,2.986a1.4,1.4,0,0,0,.447,1.462c.6.653.939,1.268-.1,2.974a.666.666,0,0,1,.116.38.69.69,0,1,1-.69-.69.514.514,0,0,1,.112.012c.905-1.483.571-1.85.157-2.3a1.912,1.912,0,0,1-.6-1.859c-1-.24-1.778-1.541-2.022-2.932a.933.933,0,0,0-.091.045C3.961,20.552,0,23.179,0,29.651a1.226,1.226,0,0,0,2.452,0,14.165,14.165,0,0,1,.6-4.151v3.011L1.79,35.59H3.225v7.183a1.581,1.581,0,1,0,3.163,0V35.59h.227v7.183a1.581,1.581,0,1,0,3.163,0V35.59H10.8v3.18h2.369v-6.9Zm-1.6,0V33.12l-.7-4.552V25.463a11.493,11.493,0,0,1,.612,4.357,1.219,1.219,0,0,0,.86,1.165v.88H10.8Zm0,0" transform="translate(0 -11.923)" fill="#a2427d"/>
</svg>
