<svg id="Gruppe_70" data-name="Gruppe 70" xmlns="http://www.w3.org/2000/svg" width="18.378" height="23.39" viewBox="0 0 18.378 23.39">
  <path id="Pfad_112" data-name="Pfad 112" d="M18.129,5.251A.8.8,0,0,0,17.542,5H13.365V1.244A1.208,1.208,0,0,0,13,.356a1.209,1.209,0,0,0-.888-.366H6.265a1.208,1.208,0,0,0-.887.365,1.208,1.208,0,0,0-.365.888V5H.835a.8.8,0,0,0-.587.248A.808.808,0,0,0,0,5.838V22.545a.8.8,0,0,0,.248.587.8.8,0,0,0,.587.248H17.542a.847.847,0,0,0,.836-.835V5.838A.8.8,0,0,0,18.129,5.251ZM6.683,2.079A.423.423,0,0,1,7.1,1.661h.835a.423.423,0,0,1,.417.417V3.332h1.67V2.079a.423.423,0,0,1,.418-.417h.835a.422.422,0,0,1,.417.417V6.255a.422.422,0,0,1-.417.417h-.835a.423.423,0,0,1-.418-.417V5H8.353V6.255a.423.423,0,0,1-.417.417H7.1a.423.423,0,0,1-.417-.417V2.079Zm10.024,19.63H11.7V18.786a.423.423,0,0,0-.418-.418H7.1a.423.423,0,0,0-.417.418v2.924H1.671V6.673H5.013v.417A1.247,1.247,0,0,0,6.265,8.343h5.848a1.247,1.247,0,0,0,1.253-1.253V6.673h3.341V21.709Z" transform="translate(0 0.01)" fill="#a2427d"/>
  <path id="Pfad_113" data-name="Pfad 113" d="M74.353,365.45h-.835a.423.423,0,0,0-.417.417v.835a.423.423,0,0,0,.417.418h.835a.423.423,0,0,0,.417-.418v-.835a.423.423,0,0,0-.417-.417Z" transform="translate(-69.758 -348.743)" fill="#a2427d"/>
  <path id="Pfad_114" data-name="Pfad 114" d="M74.353,292.36h-.835a.423.423,0,0,0-.417.417v.835a.423.423,0,0,0,.417.418h.835a.423.423,0,0,0,.417-.418v-.835a.423.423,0,0,0-.417-.417Z" transform="translate(-69.758 -278.994)" fill="#a2427d"/>
  <path id="Pfad_115" data-name="Pfad 115" d="M147.443,292.36h-.835a.423.423,0,0,0-.417.417v.835a.423.423,0,0,0,.417.418h.835a.423.423,0,0,0,.417-.418v-.835a.423.423,0,0,0-.417-.417Z" transform="translate(-139.507 -278.994)" fill="#a2427d"/>
  <path id="Pfad_116" data-name="Pfad 116" d="M74.353,219.27h-.835a.423.423,0,0,0-.417.417v.835a.423.423,0,0,0,.417.417h.835a.423.423,0,0,0,.417-.417v-.835a.423.423,0,0,0-.417-.417Z" transform="translate(-69.758 -209.245)" fill="#a2427d"/>
  <path id="Pfad_117" data-name="Pfad 117" d="M293.623,365.45h-.835a.423.423,0,0,0-.417.417v.835a.423.423,0,0,0,.417.418h.835a.423.423,0,0,0,.418-.418v-.835a.423.423,0,0,0-.418-.417Z" transform="translate(-279.004 -348.743)" fill="#a2427d"/>
  <path id="Pfad_118" data-name="Pfad 118" d="M220.523,292.36h-.835a.423.423,0,0,0-.418.417v.835a.423.423,0,0,0,.418.418h.835a.422.422,0,0,0,.417-.418v-.835a.422.422,0,0,0-.417-.417Z" transform="translate(-209.246 -278.994)" fill="#a2427d"/>
  <path id="Pfad_119" data-name="Pfad 119" d="M147.443,219.27h-.835a.423.423,0,0,0-.417.417v.835a.423.423,0,0,0,.417.417h.835a.423.423,0,0,0,.417-.417v-.835a.423.423,0,0,0-.417-.417Z" transform="translate(-139.507 -209.245)" fill="#a2427d"/>
  <path id="Pfad_120" data-name="Pfad 120" d="M293.623,292.36h-.835a.423.423,0,0,0-.417.417v.835a.423.423,0,0,0,.417.418h.835a.423.423,0,0,0,.418-.418v-.835a.423.423,0,0,0-.418-.417Z" transform="translate(-279.004 -278.994)" fill="#a2427d"/>
  <path id="Pfad_121" data-name="Pfad 121" d="M220.523,219.27h-.835a.423.423,0,0,0-.418.417v.835a.423.423,0,0,0,.418.417h.835a.422.422,0,0,0,.417-.417v-.835a.422.422,0,0,0-.417-.417Z" transform="translate(-209.246 -209.245)" fill="#a2427d"/>
  <path id="Pfad_122" data-name="Pfad 122" d="M292.36,220.533a.423.423,0,0,0,.417.417h.835a.423.423,0,0,0,.418-.417V219.7a.423.423,0,0,0-.418-.417h-.835a.423.423,0,0,0-.417.417Z" transform="translate(-278.994 -209.255)" fill="#a2427d"/>
</svg>
