<svg xmlns="http://www.w3.org/2000/svg" width="44" height="44" viewBox="0 0 44 44">
  <g id="Gruppe_38" data-name="Gruppe 38" transform="translate(0 -0.281)">
    <rect id="Rechteck_2" data-name="Rechteck 2" width="44" height="44" transform="translate(0 0.281)" fill="none"/>
    <path id="Pfad_54" data-name="Pfad 54" d="M25.377,39.718H19.842A2.221,2.221,0,0,1,17.628,37.5v-6.31l-5.471,3.164a2.223,2.223,0,0,1-3.035-.821L6.355,28.758a2.223,2.223,0,0,1,.821-3.035l5.471-3.164L7.176,19.395a2.2,2.2,0,0,1-.821-3.007l2.768-4.779a2.2,2.2,0,0,1,3.035-.821l5.471,3.146V7.614A2.221,2.221,0,0,1,19.842,5.4h5.535a2.221,2.221,0,0,1,2.214,2.214v6.31l5.471-3.164a2.223,2.223,0,0,1,3.035.821l2.768,4.779a2.223,2.223,0,0,1-.821,3.035l-5.471,3.164,5.471,3.164a2.24,2.24,0,0,1,.821,3.035L36.1,33.537a2.24,2.24,0,0,1-3.035.821l-5.471-3.164V37.5A2.221,2.221,0,0,1,25.377,39.718ZM20.949,36.4H24.27V27.365a1.1,1.1,0,0,1,1.661-.95l7.841,4.52,1.661-2.878-7.841-4.52a1.123,1.123,0,0,1,0-1.928l7.841-4.52L33.772,14.21l-7.841,4.52a1.11,1.11,0,0,1-1.661-.95V8.721H20.949v9.032a1.1,1.1,0,0,1-1.661.95L11.447,14.21,9.787,17.088l7.841,4.52a1.123,1.123,0,0,1,0,1.928l-7.841,4.52,1.661,2.878,7.841-4.52a1.11,1.11,0,0,1,1.661.95V36.4Z" transform="translate(-0.469 -0.418)" fill="#fff"/>
  </g>
</svg>
