<svg id="Gruppe_34" data-name="Gruppe 34" xmlns="http://www.w3.org/2000/svg" width="39" height="39" viewBox="0 0 39 39">
  <path id="Pfad_37" data-name="Pfad 37" d="M0,0H39V39H0Z" fill="none"/>
  <path id="Pfad_38" data-name="Pfad 38" d="M16.375,2A11.367,11.367,0,0,0,5,13.375C5,21.906,16.375,34.5,16.375,34.5S27.75,21.906,27.75,13.375A11.367,11.367,0,0,0,16.375,2ZM8.25,13.375a8.125,8.125,0,0,1,16.25,0c0,4.68-4.68,11.684-8.125,16.055C13,25.091,8.25,18.006,8.25,13.375Z" transform="translate(3.125 1.25)" fill="#a2427d"/>
  <circle id="Ellipse_2" data-name="Ellipse 2" cx="4.063" cy="4.063" r="4.063" transform="translate(15.438 10.563)" fill="#a2427d"/>
</svg>
