<svg id="Gruppe_32" data-name="Gruppe 32" xmlns="http://www.w3.org/2000/svg" width="36" height="36" viewBox="0 0 36 36">
  <g id="Gruppe_30" data-name="Gruppe 30">
    <path id="Pfad_33" data-name="Pfad 33" d="M0,0H36V36H0Z" fill="none"/>
  </g>
  <g id="Gruppe_31" data-name="Gruppe 31" transform="translate(4.5 4.5)">
    <path id="Pfad_34" data-name="Pfad 34" d="M22.5,3H6A3.009,3.009,0,0,0,3,6V27a3.009,3.009,0,0,0,3,3H27a3.009,3.009,0,0,0,3-3V10.5ZM27,27H6V6H21v6h6ZM9,24H24V21H9ZM16.5,9H9v3h7.5ZM9,18H24V15H9Z" transform="translate(-3 -3)" fill="#a2427d"/>
  </g>
</svg>
