<svg xmlns="http://www.w3.org/2000/svg" width="27.018" height="34.387" viewBox="0 0 27.018 34.387">
  <g id="Icon" transform="translate(0 0.01)">
    <g id="Gruppe_37" data-name="Gruppe 37" transform="translate(0 -0.01)">
      <path id="Pfad_43" data-name="Pfad 43" d="M26.652,7.724a1.178,1.178,0,0,0-.864-.364h-6.14V1.833A1.776,1.776,0,0,0,19.111.528,1.778,1.778,0,0,0,17.806-.01H9.21a1.776,1.776,0,0,0-1.3.537,1.776,1.776,0,0,0-.537,1.305V7.358H1.228a1.182,1.182,0,0,0-.864.364A1.187,1.187,0,0,0,0,8.587V33.149a1.182,1.182,0,0,0,.364.864,1.18,1.18,0,0,0,.864.364H25.789a1.245,1.245,0,0,0,1.229-1.228V8.587A1.181,1.181,0,0,0,26.652,7.724ZM9.825,3.061a.622.622,0,0,1,.614-.614h1.228a.622.622,0,0,1,.614.614V4.9h2.456V3.061a.622.622,0,0,1,.614-.614h1.228a.621.621,0,0,1,.614.614V9.2a.621.621,0,0,1-.614.614H15.35a.622.622,0,0,1-.614-.614V7.359H12.28V9.2a.622.622,0,0,1-.614.614H10.439A.622.622,0,0,1,9.825,9.2V3.061ZM24.561,31.92H17.193v-4.3a.622.622,0,0,0-.614-.614H10.438a.622.622,0,0,0-.614.614v4.3H2.456V9.815H7.369v.614A1.833,1.833,0,0,0,9.211,12.27h8.6a1.833,1.833,0,0,0,1.842-1.842V9.815h4.912v22.1Z" transform="translate(0 0.01)" fill="#a2427d"/>
      <path id="Pfad_44" data-name="Pfad 44" d="M74.942,365.45H73.714a.622.622,0,0,0-.614.614v1.228a.622.622,0,0,0,.614.614h1.228a.622.622,0,0,0,.614-.614v-1.228a.622.622,0,0,0-.614-.614Z" transform="translate(-68.187 -340.888)" fill="#a2427d"/>
      <path id="Pfad_45" data-name="Pfad 45" d="M74.942,292.36H73.714a.622.622,0,0,0-.614.614V294.2a.622.622,0,0,0,.614.614h1.228a.622.622,0,0,0,.614-.614v-1.228a.622.622,0,0,0-.614-.614Z" transform="translate(-68.187 -272.71)" fill="#a2427d"/>
      <path id="Pfad_46" data-name="Pfad 46" d="M148.031,292.36H146.8a.622.622,0,0,0-.614.614V294.2a.622.622,0,0,0,.614.614h1.228a.622.622,0,0,0,.614-.614v-1.228a.622.622,0,0,0-.614-.614Z" transform="translate(-136.365 -272.71)" fill="#a2427d"/>
      <path id="Pfad_47" data-name="Pfad 47" d="M74.942,219.27H73.714a.622.622,0,0,0-.614.614v1.228a.622.622,0,0,0,.614.614h1.228a.622.622,0,0,0,.614-.614v-1.228a.622.622,0,0,0-.614-.614Z" transform="translate(-68.187 -204.532)" fill="#a2427d"/>
      <path id="Pfad_48" data-name="Pfad 48" d="M294.212,365.45h-1.228a.622.622,0,0,0-.614.614v1.228a.622.622,0,0,0,.614.614h1.228a.622.622,0,0,0,.614-.614v-1.228a.622.622,0,0,0-.614-.614Z" transform="translate(-272.72 -340.888)" fill="#a2427d"/>
      <path id="Pfad_49" data-name="Pfad 49" d="M221.112,292.36h-1.228a.622.622,0,0,0-.614.614V294.2a.622.622,0,0,0,.614.614h1.228a.621.621,0,0,0,.614-.614v-1.228a.621.621,0,0,0-.614-.614Z" transform="translate(-204.533 -272.71)" fill="#a2427d"/>
      <path id="Pfad_50" data-name="Pfad 50" d="M148.031,219.27H146.8a.622.622,0,0,0-.614.614v1.228a.622.622,0,0,0,.614.614h1.228a.622.622,0,0,0,.614-.614v-1.228a.622.622,0,0,0-.614-.614Z" transform="translate(-136.365 -204.532)" fill="#a2427d"/>
      <path id="Pfad_51" data-name="Pfad 51" d="M294.212,292.36h-1.228a.622.622,0,0,0-.614.614V294.2a.622.622,0,0,0,.614.614h1.228a.622.622,0,0,0,.614-.614v-1.228a.622.622,0,0,0-.614-.614Z" transform="translate(-272.72 -272.71)" fill="#a2427d"/>
      <path id="Pfad_52" data-name="Pfad 52" d="M221.112,219.27h-1.228a.622.622,0,0,0-.614.614v1.228a.622.622,0,0,0,.614.614h1.228a.621.621,0,0,0,.614-.614v-1.228a.621.621,0,0,0-.614-.614Z" transform="translate(-204.533 -204.532)" fill="#a2427d"/>
      <path id="Pfad_53" data-name="Pfad 53" d="M292.36,221.122a.622.622,0,0,0,.614.614H294.2a.622.622,0,0,0,.614-.614v-1.228a.622.622,0,0,0-.614-.614h-1.228a.622.622,0,0,0-.614.614Z" transform="translate(-272.711 -204.542)" fill="#a2427d"/>
    </g>
  </g>
</svg>
