<svg xmlns="http://www.w3.org/2000/svg" width="28.062" height="29.09" viewBox="0 0 28.062 29.09">
  <path id="Pfad_54" data-name="Pfad 54" d="M22.434,34.49H17.742a1.882,1.882,0,0,1-1.877-1.877V27.265l-4.637,2.682a1.885,1.885,0,0,1-2.573-.7L6.31,25.2a1.885,1.885,0,0,1,.7-2.573l4.637-2.682L7.006,17.263a1.867,1.867,0,0,1-.7-2.549l2.346-4.051a1.865,1.865,0,0,1,2.573-.7l4.637,2.667V7.277A1.882,1.882,0,0,1,17.742,5.4h4.692a1.882,1.882,0,0,1,1.877,1.877v5.349l4.637-2.682a1.885,1.885,0,0,1,2.573.7l2.346,4.051a1.885,1.885,0,0,1-.7,2.573l-4.637,2.682,4.637,2.682a1.9,1.9,0,0,1,.7,2.573l-2.346,4.051a1.9,1.9,0,0,1-2.573.7l-4.637-2.682v5.349A1.882,1.882,0,0,1,22.434,34.49Zm-3.754-2.815H21.5V24.019a.936.936,0,0,1,1.408-.805l6.647,3.832,1.408-2.44-6.647-3.832a.952.952,0,0,1,0-1.634l6.647-3.832-1.408-2.44L22.9,16.7a.941.941,0,0,1-1.408-.805V8.215H18.681v7.656a.936.936,0,0,1-1.408.805l-6.647-3.808-1.408,2.44,6.647,3.832a.952.952,0,0,1,0,1.634L9.219,24.606l1.408,2.44,6.647-3.832a.941.941,0,0,1,1.408.805v7.656Z" transform="translate(-6.057 -5.4)" fill="#f4031f"/>
</svg>
